<svg width="16" height="16" viewBox="0 0 16 16" xmlns="http://www.w3.org/2000/svg"><path d="M6.5 2a.5.5 0 0 0 0 1h3a.5.5 0 0 0 0-1h-3ZM3 6.5a.5.5 0 0 0-1 0v3a.5.5 0 0 0 1 0v-3ZM6.5 13a.5.5 0 0 0 0 1h3a.5.5 0 0 0 0-1h-3Zm7-7c.28 0 .5.22.5.5v3a.5.5 0 0 1-1 0v-3c0-.28.22-.5.5-.5Zm-9-3C3.67 3 3 3.67 3 4.5a.5.5 0 0 1-1 0A2.5 2.5 0 0 1 4.5 2a.5.5 0 0 1 0 1ZM3 11.5a.5.5 0 0 0-1 0A2.5 2.5 0 0 0 4.5 14a.5.5 0 0 0 0-1A1.5 1.5 0 0 1 3 11.5Zm10.5-.5c.28 0 .5.22.5.5a2.5 2.5 0 0 1-2.5 2.5.5.5 0 0 1 0-1c.83 0 1.5-.67 1.5-1.5 0-.28.22-.5.5-.5Zm-2-9a.5.5 0 0 0 0 1c.83 0 1.5.67 1.5 1.5a.5.5 0 0 0 1 0A2.5 2.5 0 0 0 11.5 2Z"/></svg>