<svg width="16" height="16" viewBox="0 0 16 16" xmlns="http://www.w3.org/2000/svg"><path d="M6.75 1.98a.77.77 0 1 0 0 1.54h2.5a.77.77 0 1 0 0-1.54h-2.5ZM3.52 6.75a.77.77 0 1 0-1.54 0v2.5a.77.77 0 1 0 1.54 0v-2.5Zm2.46 6.5c0-.43.35-.77.77-.77h2.5a.77.77 0 1 1 0 1.54h-2.5a.77.77 0 0 1-.77-.77Zm8.04-6.5a.77.77 0 0 0-1.54 0v2.5a.77.77 0 1 0 1.54 0v-2.5Zm-9-4.1a.77.77 0 0 1-.66.88.98.98 0 0 0-.83.83.77.77 0 0 1-1.52-.22 2.52 2.52 0 0 1 2.13-2.13c.42-.06.81.23.87.65Zm-1.49 8.97a.77.77 0 1 0-1.52.22 2.52 2.52 0 0 0 2.13 2.14.77.77 0 0 0 .22-1.53.98.98 0 0 1-.83-.83Zm9.8-.65c.41.06.7.45.65.87a2.52 2.52 0 0 1-2.14 2.14.77.77 0 0 1-.22-1.53c.43-.06.77-.4.83-.83a.77.77 0 0 1 .87-.65Zm-1.49-8.96a.77.77 0 0 0-.22 1.52c.43.06.77.4.83.83a.77.77 0 0 0 1.53-.22 2.52 2.52 0 0 0-2.14-2.13Z"/></svg>