<svg width="12" height="12" viewBox="0 0 12 12" xmlns="http://www.w3.org/2000/svg"><path d="M5 2.5a1.5 1.5 0 1 1-3 0 1.5 1.5 0 0 1 3 0ZM6 7a1.5 1.5 0 1 0 0-3 1.5 1.5 0 0 0 0 3ZM3.55 5H2a1 1 0 0 0-1 1v.2c0 .6.34 1.1.8 1.41.27.2.6.34.95.42a2 2 0 0 1 1.3-.98A2.49 2.49 0 0 1 3.54 5Zm4.4 2.05a2 2 0 0 1 1.3.98c.36-.08.68-.22.95-.42.46-.32.8-.8.8-1.4V6a1 1 0 0 0-1-1H8.45a2.51 2.51 0 0 1-.5 2.05ZM4.5 8a1 1 0 0 0-1 1v.17c0 .58.36 1.05.8 1.36.46.3 1.06.47 1.7.47.64 0 1.24-.17 1.7-.47.44-.3.8-.78.8-1.36V9a1 1 0 0 0-1-1h-3ZM9 4a1.5 1.5 0 1 0 0-3 1.5 1.5 0 0 0 0 3Z"/></svg>