<svg width="12" height="12" viewBox="0 0 12 12" xmlns="http://www.w3.org/2000/svg"><path d="M3.5 2a.5.5 0 1 0 0 1 .5.5 0 0 0 0-1ZM2 2.5a1.5 1.5 0 1 1 3 0 1.5 1.5 0 0 1-3 0ZM3.5 9a1 1 0 0 1 1-1h3a1 1 0 0 1 1 1v.17c0 .58-.36 1.05-.8 1.36-.46.3-1.06.47-1.7.47-.64 0-1.24-.17-1.7-.47-.44-.3-.8-.78-.8-1.36V9Zm1 0v.17c0 .15.1.34.36.52.27.18.67.31 1.14.31.47 0 .87-.13 1.14-.3.27-.19.36-.38.36-.53V9h-3ZM8 2.5a.5.5 0 1 1 1 0 .5.5 0 0 1-1 0ZM8.5 1a1.5 1.5 0 1 0 0 3 1.5 1.5 0 0 0 0-3ZM6 5a.5.5 0 1 0 0 1 .5.5 0 0 0 0-1Zm-1.5.5a1.5 1.5 0 1 1 3 0 1.5 1.5 0 0 1-3 0ZM3.55 5H2a1 1 0 0 0-1 1v.2c0 .6.34 1.1.8 1.41.27.2.6.34.95.42a2 2 0 0 1 1.2-.96c-.14.03-.29.05-.45.05-.46 0-.86-.13-1.13-.32-.26-.2-.37-.4-.37-.6V6h1.55a2.51 2.51 0 0 1 0-1Zm4.9 1H10v.2c0 .2-.1.4-.37.6-.27.19-.67.32-1.13.32-.16 0-.31-.02-.46-.05a2 2 0 0 1 1.21.96c.36-.08.68-.22.95-.42.46-.32.8-.8.8-1.4V6a1 1 0 0 0-1-1H8.45a2.51 2.51 0 0 1 0 1Z"/></svg>