<svg width="16" height="16" viewBox="0 0 16 16" xmlns="http://www.w3.org/2000/svg"><path d="M6.33 6.92a5.5 5.5 0 0 1 3.3-1.85 2.75 2.75 0 1 0-3.3 1.85ZM5 10.5c0-.9.22-1.75.6-2.5H3.5C2.67 8 2 8.67 2 9.5v.5c0 1.8 1.55 3.65 4.22 3.96A5.48 5.48 0 0 1 5 10.5ZM10.5 6h.28l-4.77 4.78L6 10.5A4.5 4.5 0 0 1 10.5 6Zm-3.52 7.3a4.5 4.5 0 0 1-.74-1.34l5.61-5.6a.5.5 0 0 0 .1-.12c.5.17.95.42 1.36.74l-6.33 6.33Zm7.78-4.26a4.5 4.5 0 0 0-.74-1.35l-6.33 6.33c.4.32.87.57 1.37.74a.5.5 0 0 1 .09-.11l5.6-5.61Zm-4.54 5.95.28.01a4.5 4.5 0 0 0 4.5-4.78l-4.78 4.77Z"/></svg>