<svg width="32" height="32" viewBox="0 0 32 32" xmlns="http://www.w3.org/2000/svg"><path d="M2.55 9.47a2.57 2.57 0 0 0-.25-.2h-.01a2.53 2.53 0 0 0-.74-.42l-1.23-.4A.49.49 0 0 1 0 7.99a.48.48 0 0 1 .32-.45l1.23-.4c.31-.11.6-.29.84-.5.02-.03.04-.04.06-.05l.07-.06c.27-.27.47-.6.6-.96v-.03l.4-1.22A.48.48 0 0 1 3.98 4c.1 0 .2.03.27.09.06.05.11.1.14.18l.02.02.02.03.4 1.23c.04.11.1.23.16.34.11.24.27.46.45.65.28.28.62.49 1 .6l1.22.4.02.01a.48.48 0 0 1 .32.46.5.5 0 0 1-.32.46l-1.22.4a2.5 2.5 0 0 0-1.6 1.59l-.4 1.22-.01.03a.49.49 0 0 1-.17.2.48.48 0 0 1-.55 0 .48.48 0 0 1-.18-.22l-.4-1.23a2.54 2.54 0 0 0-.6-.99Zm4.42 3.48-.77.25a.3.3 0 0 0 0 .57l.77.26c.23.07.44.2.62.38.17.17.3.39.37.62l.26.77a.3.3 0 0 0 .46.15.3.3 0 0 0 .1-.15l.26-.77c.07-.23.2-.44.37-.61.18-.18.39-.3.62-.38l.77-.25a.3.3 0 0 0 .2-.28.3.3 0 0 0-.2-.29h-.02l-.76-.25a1.58 1.58 0 0 1-1-1l-.25-.77a.32.32 0 0 0-.1-.14.31.31 0 0 0-.3-.04.3.3 0 0 0-.17.18l-.25.77a1.59 1.59 0 0 1-.38.61c-.17.17-.37.3-.6.37ZM2 24.75V11.76l.14.42v.02a1.98 1.98 0 0 0 1.87 1.3h.01c.16 0 .32-.02.48-.06v.05a1.8 1.8 0 0 0 1.21 1.7h.02l.77.26.02.01.02.03.26.8v.02a1.8 1.8 0 0 0 1.7 1.2h.01a1.8 1.8 0 0 0 1.7-1.21v-.02l.25-.78.01-.02.03-.01.78-.26a1.8 1.8 0 0 0 .89-2.75c-.14-.2-.33-.37-.54-.5h-.01l-.02-.01a1.8 1.8 0 0 0-.32-.15l-.23-.08h-.03l-.53-.17a.1.1 0 0 1-.03-.02l-.01-.03-.26-.79-.01-.02c-.08-.21-.2-.4-.34-.58l-.02-.02-.02-.02a1.93 1.93 0 0 0-.23-.2l-.03-.03-.03-.02a1.81 1.81 0 0 0-.72-.3 2 2 0 0 0-.59-3.37l-.06-.03-.05-.01-1.19-.39a1.01 1.01 0 0 1-.39-.23 1.01 1.01 0 0 1-.18-.26l-.01-.03-.02-.03a1.1 1.1 0 0 1-.06-.12L5.9 4h20.85C28.55 4 30 5.46 30 7.25v17.5c0 1.8-1.46 3.25-3.25 3.25H5.25A3.25 3.25 0 0 1 2 24.75Z"/></svg>