<svg width="16" height="16" viewBox="0 0 16 16" xmlns="http://www.w3.org/2000/svg"><path d="M4.5 2A2.5 2.5 0 0 0 2 4.5v1a.5.5 0 0 0 1 0v-1C3 3.67 3.67 3 4.5 3h1a.5.5 0 0 0 0-1h-1Zm6 0a.5.5 0 0 0 0 1h1c.83 0 1.5.67 1.5 1.5v1a.5.5 0 0 0 1 0v-1A2.5 2.5 0 0 0 11.5 2h-1ZM3 10.5a.5.5 0 0 0-1 0v1A2.5 2.5 0 0 0 4.5 14h1a.5.5 0 0 0 0-1h-1l-.17-.01A1.5 1.5 0 0 1 3 11.5v-1Zm11 0a.5.5 0 0 0-1 0v1a1.5 1.5 0 0 1-1.5 1.5h-1a.5.5 0 0 0 0 1h1a2.5 2.5 0 0 0 2.5-2.5v-1ZM9.09 13c.2-.58.76-1 1.41-1h1a.5.5 0 0 0 .5-.5c0-.83-.67-1.5-1.5-1.5h-5c-.83 0-1.5.67-1.5 1.5 0 .28.22.5.5.5h1c.65 0 1.2.42 1.41 1H9.1ZM8 9a2.25 2.25 0 1 0 0-4.5A2.25 2.25 0 0 0 8 9Z"/></svg>