<svg width="28" height="28" viewBox="0 0 28 28" xmlns="http://www.w3.org/2000/svg"><path d="M6.75 3A3.75 3.75 0 0 0 3 6.75v3.5a.75.75 0 0 0 1.5 0v-3.5c0-1.24 1-2.25 2.25-2.25h3.5a.75.75 0 0 0 0-1.5h-3.5Zm11 0a.75.75 0 0 0 0 1.5h3.5c1.24 0 2.25 1 2.25 2.25v3.5a.75.75 0 0 0 1.5 0v-3.5A3.75 3.75 0 0 0 21.25 3h-3.5ZM4.5 17.75a.75.75 0 0 0-1.5 0v3.5A3.75 3.75 0 0 0 6.75 25h3.5a.75.75 0 0 0 0-1.5h-3.5a2.25 2.25 0 0 1-2.25-2.25v-3.5Zm20.5 0a.75.75 0 0 0-1.5 0v3.5a2.25 2.25 0 0 1-2.25 2.25h-3.5a.75.75 0 1 0 0 1.5h3.5A3.75 3.75 0 0 0 25 21.25v-3.5ZM16.02 24c.12-.85.85-1.5 1.73-1.5h3.5c.28 0 .54-.1.75-.25v-1C22 20 21 19 19.75 19H8.25C7.01 19 6 20 6 21.25v1c.21.16.47.25.75.25h3.5c.88 0 1.61.65 1.73 1.5h4.04ZM14 17a4.5 4.5 0 1 0 0-9 4.5 4.5 0 0 0 0 9Z"/></svg>