<svg width="48" height="48" viewBox="0 0 48 48" xmlns="http://www.w3.org/2000/svg"><path d="M6 12.25C6 8.8 8.8 6 12.25 6h5.5a1.25 1.25 0 1 1 0 2.5h-5.5a3.75 3.75 0 0 0-3.75 3.75v5.5a1.25 1.25 0 1 1-2.5 0v-5.5Zm23-5c0-.69.56-1.25 1.25-1.25h5.5C39.2 6 42 8.8 42 12.25v5.5a1.25 1.25 0 1 1-2.5 0v-5.5a3.75 3.75 0 0 0-3.75-3.75h-5.5c-.69 0-1.25-.56-1.25-1.25ZM7.25 29c.69 0 1.25.56 1.25 1.25v5.5a3.75 3.75 0 0 0 3.75 3.75h5.5a1.25 1.25 0 1 1 0 2.5h-5.5A6.25 6.25 0 0 1 6 35.75v-5.5c0-.69.56-1.25 1.25-1.25Zm33.5 0c.69 0 1.25.56 1.25 1.25v5.5C42 39.2 39.2 42 35.75 42h-5.5a1.25 1.25 0 1 1 0-2.5h5.5a3.87 3.87 0 0 0 1.06-.15 3.75 3.75 0 0 0 2.69-3.6v-5.5c0-.69.56-1.25 1.25-1.25ZM13.5 37.5v-.25a2.75 2.75 0 0 1 2.75-2.75h15.5a2.75 2.75 0 0 1 2.75 2.75v.25h1.25c.49 0 .93-.2 1.24-.52A5.25 5.25 0 0 0 31.75 32h-15.5c-2.81 0-5.1 2.2-5.24 4.98.31.32.75.52 1.24.52h1.25Zm10.5-11a5.5 5.5 0 1 1 0-11 5.5 5.5 0 0 1 0 11Zm0 2.5a8 8 0 1 0 0-16 8 8 0 0 0 0 16Z"/></svg>