<svg width="20" height="20" viewBox="0 0 20 20" xmlns="http://www.w3.org/2000/svg"><path d="M5.5 3A2.5 2.5 0 0 0 3 5.5v3.26c.3-.2.64-.38 1-.5V5.5C4 4.67 4.67 4 5.5 4H8v1.5C8 6.33 8.67 7 9.5 7H16v7.5c0 .83-.68 1.5-1.5 1.5h-3.38l.44.44c.16.16.28.36.35.56h2.59a2.5 2.5 0 0 0 2.5-2.5v-9A2.5 2.5 0 0 0 14.5 3h-9ZM16 5.5V6H9.5a.5.5 0 0 1-.5-.5V4h5.5c.82 0 1.5.67 1.5 1.5ZM5.5 16c.79 0 1.51-.26 2.1-.7l2.55 2.55a.5.5 0 1 0 .7-.7L8.3 14.6A3.5 3.5 0 1 0 5.5 16Zm0-1a2.5 2.5 0 1 1 0-5 2.5 2.5 0 0 1 0 5Z"/></svg>