<svg width="20" height="20" viewBox="0 0 20 20" xmlns="http://www.w3.org/2000/svg"><path d="m13.88.28.35 1.07a2.2 2.2 0 0 0 1.4 1.4l1.07.35h.02a.42.42 0 0 1 0 .8l-1.07.35a2.2 2.2 0 0 0-1.4 1.4l-.35 1.07a.42.42 0 0 1-.8 0l-.35-1.07a2.23 2.23 0 0 0-1.4-1.4l-1.07-.35a.42.42 0 0 1 0-.8l1.07-.35a2.2 2.2 0 0 0 1.38-1.4l.35-1.07a.42.42 0 0 1 .8 0Zm4.9 7.93-.76-.25a1.58 1.58 0 0 1-1-1l-.25-.76a.3.3 0 0 0-.57 0l-.25.77a1.58 1.58 0 0 1-.98 1l-.77.24a.3.3 0 0 0 0 .57l.77.25a1.58 1.58 0 0 1 1 1l.24.77a.3.3 0 0 0 .58 0l.24-.77a1.58 1.58 0 0 1 1-1l.77-.24a.3.3 0 0 0 0-.57h-.02ZM9.1 3a1.42 1.42 0 0 0 .86 1.84h.01l1.08.35a1.2 1.2 0 0 1 .76.77l.2.6V7H8V3h1.09Zm7.4 9H13V8.5a1.3 1.3 0 0 0 .87 1.23h.01l.77.25a.58.58 0 0 1 .37.37l.25.77v.01a1.3 1.3 0 0 0 1.22.87Zm-1.99 5H13v-4h4v1.5a2.5 2.5 0 0 1-2.5 2.5ZM8 12h4V8H8v4Zm4 1H8v4h4v-4ZM7 8v4H3V8h4Zm0 5H3v1.5A2.5 2.5 0 0 0 5.5 17H7v-4Zm0-6V3H5.5A2.5 2.5 0 0 0 3 5.5V7h4Z"/></svg>