<svg width="20" height="20" viewBox="0 0 20 20" xmlns="http://www.w3.org/2000/svg"><path d="M9.09 3H5.5A2.5 2.5 0 0 0 3 5.5v9A2.5 2.5 0 0 0 5.5 17h9a2.5 2.5 0 0 0 2.5-2.5v-2.6a1.3 1.3 0 0 1-1 0v.1h-3V8h.1l.02-.05c-.16-.04-.3-.12-.44-.21l-.07-.05c-.2-.17-.36-.39-.45-.64v-.01L12 6.57V7H8V4h1.1a1.42 1.42 0 0 1-.01-1ZM4 13h3v3H5.36A1.5 1.5 0 0 1 4 14.5V13Zm4 3v-3h4v3H8Zm5 0v-3h3V14.64A1.5 1.5 0 0 1 14.5 16H13Zm-1-4H8V8h4v4ZM4 5.5v-.14A1.5 1.5 0 0 1 5.5 4H7v3H4V5.5ZM7 12H4V8h3v4ZM13.88.28l.35 1.07a2.2 2.2 0 0 0 1.4 1.4l1.07.35h.02a.42.42 0 0 1 0 .8l-1.07.35a2.2 2.2 0 0 0-1.4 1.4l-.35 1.07a.42.42 0 0 1-.8 0l-.35-1.07a2.23 2.23 0 0 0-1.4-1.4l-1.07-.35a.42.42 0 0 1 0-.8l1.07-.35a2.2 2.2 0 0 0 1.38-1.4l.35-1.07a.42.42 0 0 1 .8 0Zm4.9 7.93-.76-.25a1.58 1.58 0 0 1-1-1l-.25-.76a.3.3 0 0 0-.57 0l-.25.77a1.58 1.58 0 0 1-.98 1l-.77.24a.3.3 0 0 0 0 .57l.77.25a1.58 1.58 0 0 1 1 1l.24.77a.3.3 0 0 0 .58 0l.24-.77a1.58 1.58 0 0 1 1-1l.77-.24a.3.3 0 0 0 0-.57h-.02Z"/></svg>