<svg width="20" height="20" viewBox="0 0 20 20" xmlns="http://www.w3.org/2000/svg"><path d="M4.03 9.4a.18.18 0 0 1 .09-.07l.45-.15a.94.94 0 0 0 .6-.6l.14-.46a.18.18 0 0 1 .1-.1C5.45 8 5.47 8 5.49 8a.18.18 0 0 1 .13.06l.04.06.15.46a.95.95 0 0 0 .6.6l.46.15.04.01a.18.18 0 0 1-.04.32l-.45.15a.95.95 0 0 0-.6.6l-.15.46a.18.18 0 0 1-.17.12.18.18 0 0 1-.17-.12l-.14-.46a.94.94 0 0 0-.6-.6l-.46-.15a.18.18 0 0 1-.09-.06.18.18 0 0 1-.03-.1c0-.04 0-.08.03-.1Zm-1.7-.46A.3.3 0 0 0 2.5 9a.3.3 0 0 0 .27-.18l.01-.02.25-.77a1.58 1.58 0 0 1 1-1l.76-.25a.3.3 0 0 0 .15-.45.3.3 0 0 0-.15-.12h-.01L4 5.97c-.23-.08-.44-.21-.61-.38-.12-.12-.21-.26-.28-.4a1.44 1.44 0 0 1-.1-.22l-.25-.77a.3.3 0 0 0-.29-.2.3.3 0 0 0-.28.2l-.25.77v.02a1.58 1.58 0 0 1-.98.97l-.77.25a.3.3 0 0 0-.2.29.3.3 0 0 0 .2.28l.77.25a1.58 1.58 0 0 1 1 1l.24.77c.02.06.06.1.11.14ZM2.5 10c.2 0 .38-.04.56-.13.02.08.05.14.08.19l.02.05.04.05c.17.26.39.37.47.41l.07.04.5.16.17.53.05.09.01.01.01.02a1.65 1.65 0 0 0 .13.19c.03.03.11.12.24.2a1.17 1.17 0 0 0 1.3 0c.26-.17.37-.39.41-.47l.04-.07.16-.5.53-.17.09-.05.01-.01.02-.01a1.64 1.64 0 0 0 .19-.13c.03-.03.12-.11.2-.24a1.2 1.2 0 0 0 .03-1.27c-.1-.19-.27-.34-.46-.43l-.21-.11h-.08l-.3-.1-.17-.5-.04-.07v-.01l-.01-.02-.03-.06a1.2 1.2 0 0 0-.18-.23l-.1-.1-.09-.05c-.1-.07-.2-.12-.3-.15.06-.14.1-.3.12-.48.03-.36-.1-.67-.27-.87a1.33 1.33 0 0 0-.61-.44l-.16-.05h-.01l-.6-.2a.67.67 0 0 1-.22-.13.58.58 0 0 1-.1-.12L4 4.73l-.02-.04-.03-.05-.2-.62L4 4h12a2 2 0 0 1 2 2v8a2 2 0 0 1-2 2H4a2 2 0 0 1-2-2V9.9c.16.07.33.1.5.1Z"/></svg>