<svg width="28" height="28" viewBox="0 0 28 28" xmlns="http://www.w3.org/2000/svg"><path d="M2.23 8.78A2.25 2.25 0 0 0 2 8.61V8.6c-.2-.16-.42-.28-.66-.37L.28 7.88a.42.42 0 0 1-.28-.4.42.42 0 0 1 .28-.4l1.07-.34a2.19 2.19 0 0 0 .8-.48 2.21 2.21 0 0 0 .58-.89v-.03l.35-1.07a.42.42 0 0 1 .4-.28c.08 0 .17.03.24.08.05.04.1.1.12.16l.02.02.02.03.34 1.07.14.3a2.2 2.2 0 0 0 1.26 1.1l1.08.35h.02a.42.42 0 0 1 .28.4c0 .09-.03.17-.08.24a.43.43 0 0 1-.2.16l-1.07.35a2.19 2.19 0 0 0-1.4 1.4L3.9 10.7v.03a.43.43 0 0 1-.15.18.42.42 0 0 1-.48 0 .42.42 0 0 1-.16-.2l-.35-1.07a2.22 2.22 0 0 0-.53-.87Zm3.44 3.49.6-.2a1.27 1.27 0 0 0 .67-.53c.05-.08.1-.17.12-.26l.2-.6a.24.24 0 0 1 .14-.15.25.25 0 0 1 .27.06l.05.08.2.61a1.26 1.26 0 0 0 .79.8l.61.2h.01l.05.02.07.07a.24.24 0 0 1 0 .28.24.24 0 0 1-.12.09l-.6.2c-.2.06-.36.16-.5.3-.14.14-.24.3-.3.49l-.2.61a.24.24 0 0 1-.23.16.24.24 0 0 1-.23-.16l-.2-.61a1.27 1.27 0 0 0-.3-.5c-.14-.14-.3-.24-.5-.3l-.6-.2a.24.24 0 0 1 0-.45ZM2 21.25v-10.7l.16.5v.01a1.42 1.42 0 0 0 1.35.94 1.43 1.43 0 0 0 1.02-.45h.01c.11-.12.2-.26.27-.42v-.01l.03-.07.36-1.1a1.19 1.19 0 0 1 .76-.76l1.09-.35h.02a1.43 1.43 0 0 0 0-2.68l-.05-.01-.04-.01-1.04-.34a1.2 1.2 0 0 1-.47-.29 1.2 1.2 0 0 1-.21-.3l-.01-.02-.01-.03c-.03-.04-.05-.1-.07-.15L4.84 4h18.41A2.75 2.75 0 0 1 26 6.75v14.5A2.75 2.75 0 0 1 23.25 24H4.75A2.75 2.75 0 0 1 2 21.25Zm3.96-7.38.1.06c.03.03.05.07.06.1l.2.64.01.01c.09.24.25.45.45.6a1.25 1.25 0 0 0 1.42 0h.02c.2-.15.37-.37.45-.61v-.01l.2-.62a.27.27 0 0 1 .07-.1.28.28 0 0 1 .1-.05l.61-.2h.01a1.24 1.24 0 0 0 .6-1.9c-.1-.14-.22-.25-.36-.34h-.01l-.01-.01a1.26 1.26 0 0 0-.22-.1l-.16-.06h-.02l-.46-.15a.27.27 0 0 1-.1-.06.26.26 0 0 1-.05-.1l-.2-.63-.01-.01a1.26 1.26 0 0 0-.24-.4l-.01-.01-.02-.02-.15-.14-.02-.02-.03-.01c-.2-.14-.44-.22-.7-.22-.16 0-.31.03-.45.08h-.01l-.01.01-.24.13-.01.01c-.21.15-.37.36-.45.6l-.21.63a.27.27 0 0 1-.06.1.27.27 0 0 1-.09.05l-.61.2h-.01a1.24 1.24 0 0 0-.84 1.17 1.24 1.24 0 0 0 .84 1.18l.62.2Z"/></svg>