<svg width="16" height="16" viewBox="0 0 16 16" xmlns="http://www.w3.org/2000/svg"><path d="M1.3 7.78a1.25 1.25 0 0 1-.3-.3v3.77c0 .97.78 1.75 1.75 1.75h10.5c.97 0 1.75-.78 1.75-1.75v-6.5C15 3.78 14.22 3 13.25 3H3.22l.15.47a.3.3 0 0 0 .06.1l.1.06.46.15h.02l.17.05c.24.09.44.25.6.45v.01a1.24 1.24 0 0 1 0 1.43l-.01.01c-.1.14-.23.26-.37.34l.24.13.02.02.11.08.06.07c.1.11.18.25.23.4l.04.12h.05l.28.13.04.03c.12.07.23.17.32.28v.02l.02.02c.12.18.2.4.2.62V8c0 .23-.08.45-.2.63v.01H5.8c-.13.2-.32.34-.54.42h-.01l-.14.05-.04.13A1.12 1.12 0 0 1 4 10c-.23 0-.45-.07-.64-.2l-.01-.01c-.18-.13-.32-.31-.4-.52v-.02L2.9 9.1l-.13-.04A1.12 1.12 0 0 1 2.01 8c-.26 0-.5-.08-.71-.22ZM1 5.53a1.24 1.24 0 0 1 .38.32c.09.11.15.24.2.38l.2.6A.25.25 0 0 0 2 7a.24.24 0 0 0 .22-.15v-.01l.2-.61c.07-.19.17-.36.3-.5.15-.13.32-.24.5-.3l.61-.2a.24.24 0 0 0 0-.46l-.62-.2a1.26 1.26 0 0 1-.8-.79l-.2-.6a.24.24 0 0 0-.37-.12.24.24 0 0 0-.09.11l-.2.61v.02a1.26 1.26 0 0 1-.79.78l-.6.2a.24.24 0 0 0-.16.23c-.01.05 0 .1.03.14.03.04.07.07.12.09l.61.2.23.1Zm2.93 1.5a.12.12 0 0 0-.04.05l-.1.3a.6.6 0 0 1-.15.25.64.64 0 0 1-.25.16l-.3.1a.12.12 0 0 0-.06.04.12.12 0 0 0 .06.18l.3.1a.62.62 0 0 1 .4.4l.1.31.05.06L4 9c.02 0 .05 0 .07-.02a.12.12 0 0 0 .04-.06l.1-.3a.63.63 0 0 1 .4-.4l.3-.1a.12.12 0 0 0 .03-.22l-.02-.01h-.01l-.3-.1a.64.64 0 0 1-.4-.4l-.1-.3a.11.11 0 0 0-.03-.05l-.02-.02A.12.12 0 0 0 4 7l-.04.01-.03.01ZM5 5"/></svg>