<svg width="24" height="24" viewBox="0 0 24 24" xmlns="http://www.w3.org/2000/svg"><path d="M6.56 8c.22.02.44.09.62.22h.01l.01.01.17.15.01.02h.01c.1.12.18.26.24.4v.02l.18.54.02.04.05.03.37.12h.04l.17.06.18.09h.02a1.21 1.21 0 0 1 .36 1.75c-.14.2-.34.35-.57.44h-.02l-.55.18a.1.1 0 0 0-.06.06l-.18.56-.01.03a1.21 1.21 0 0 1-1.82.56c-.21-.15-.36-.35-.45-.58v-.02l-.18-.55a.1.1 0 0 0-.03-.04.12.12 0 0 0-.04-.02l-.54-.18a1.2 1.2 0 0 1-.82-1.12 1.37 1.37 0 0 1-1.53-.02 1.37 1.37 0 0 1-.22-.2v7.2C2 18.99 3 20 4.25 20h15.5c1.24 0 2.25-1 2.25-2.25V6.25C22 5.01 21 4 19.75 4H4.3l.27.85a.88.88 0 0 0 .57.56l.76.25h.03l.16.05a1.37 1.37 0 0 1 .66 2.07v.01c-.06.08-.12.15-.19.21Zm-3.9 1.76-.3-.92a1.91 1.91 0 0 0-1.2-1.2l-.92-.3a.36.36 0 0 1-.17-.55c.04-.06.1-.1.17-.13l.92-.3a1.9 1.9 0 0 0 1.18-1.18v-.02l.3-.92a.36.36 0 0 1 .55-.17c.07.04.11.1.14.17l.3.92a1.88 1.88 0 0 0 1.2 1.2l.91.3h.02c.07.02.13.07.18.13a.37.37 0 0 1 0 .42c-.05.06-.1.1-.18.13l-.92.3a1.89 1.89 0 0 0-1.2 1.2l-.3.92v.02a.38.38 0 0 1-.13.15.37.37 0 0 1-.42 0 .36.36 0 0 1-.13-.17Zm2.77.61-.54.18a.21.21 0 0 0-.1.32.2.2 0 0 0 .1.08l.54.17a1.12 1.12 0 0 1 .7.7l.17.54a.21.21 0 0 0 .32.1.22.22 0 0 0 .08-.1l.17-.54a1.1 1.1 0 0 1 .7-.7l.54-.17a.21.21 0 0 0 .14-.2.2.2 0 0 0-.14-.2H8.1l-.54-.17a1.12 1.12 0 0 1-.7-.7l-.17-.54a.22.22 0 0 0-.08-.1.22.22 0 0 0-.2-.03.22.22 0 0 0-.12.12l-.18.54c-.02.08-.05.16-.1.23-.04.07-.1.14-.15.2-.12.12-.27.22-.43.27Z"/></svg>