<svg width="20" height="20" viewBox="0 0 20 20" xmlns="http://www.w3.org/2000/svg"><path d="M4.03 9.4a.18.18 0 0 1 .09-.07l.45-.15a.94.94 0 0 0 .6-.6l.14-.46a.18.18 0 0 1 .1-.1C5.45 8 5.47 8 5.49 8a.18.18 0 0 1 .13.06l.04.06.15.46a.95.95 0 0 0 .6.6l.46.15.04.01a.18.18 0 0 1-.04.32l-.45.15a.95.95 0 0 0-.6.6l-.15.46a.18.18 0 0 1-.17.12.18.18 0 0 1-.17-.12l-.14-.46a.94.94 0 0 0-.6-.6l-.46-.15a.18.18 0 0 1-.09-.06.18.18 0 0 1-.03-.1c0-.04 0-.08.03-.1Zm-1.7-.46A.3.3 0 0 0 2.5 9a.3.3 0 0 0 .27-.18l.01-.02.25-.77a1.58 1.58 0 0 1 1-1l.76-.25a.3.3 0 0 0 .15-.45.3.3 0 0 0-.15-.12h-.01L4 5.97c-.23-.08-.44-.21-.61-.38-.12-.12-.21-.26-.28-.4a1.44 1.44 0 0 1-.1-.22l-.25-.77a.3.3 0 0 0-.29-.2.3.3 0 0 0-.28.2l-.25.77v.02a1.58 1.58 0 0 1-.98.97l-.77.25a.3.3 0 0 0-.2.29.3.3 0 0 0 .2.28l.77.25a1.58 1.58 0 0 1 1 1l.24.77c.02.06.06.1.11.14ZM2.5 10c.17 0 .34-.03.5-.1V14a1 1 0 0 0 1 1h12a1 1 0 0 0 1-1V6a1 1 0 0 0-1-1H4.27a.64.64 0 0 1-.16-.1.58.58 0 0 1-.1-.13L4 4.73l-.02-.04-.03-.05-.2-.62L4 4h12a2 2 0 0 1 2 2v8a2 2 0 0 1-2 2H4a2 2 0 0 1-2-2V9.9c.16.07.33.1.5.1Z"/></svg>