<svg width="16" height="16" viewBox="0 0 16 16" xmlns="http://www.w3.org/2000/svg"><path d="M4.5 2A2.5 2.5 0 0 0 2 4.5v1a.5.5 0 0 0 1 0v-1C3 3.67 3.67 3 4.5 3h1a.5.5 0 0 0 0-1h-1Zm6 0a.5.5 0 0 0 0 1h1c.83 0 1.5.67 1.5 1.5v1a.5.5 0 0 0 1 0v-1A2.5 2.5 0 0 0 11.5 2h-1ZM3 10.5a.5.5 0 0 0-1 0v1A2.5 2.5 0 0 0 4.5 14h1a.5.5 0 0 0 0-1h-1l-.17-.01h-.01A1.5 1.5 0 0 1 3 11.5v-1Zm11 0a.5.5 0 0 0-1 0v1a1.5 1.5 0 0 1-1.5 1.5h-1a.5.5 0 0 0 0 1h1a2.5 2.5 0 0 0 2.5-2.5v-1ZM5.04 12a2.75 2.75 0 0 1-.04-.5c0-.28.22-.5.5-.5h5c.28 0 .5.22.5.5 0 .18-.02.34-.04.5h.54a.5.5 0 0 0 .5-.47v-.03c0-.83-.67-1.5-1.5-1.5h-5A1.5 1.5 0 0 0 4 11.45v.05c0 .28.22.5.5.5h.54Zm4.21-5.25a1.25 1.25 0 1 0-2.5 0 1.25 1.25 0 0 0 2.5 0Zm1 0a2.25 2.25 0 1 1-4.5 0 2.25 2.25 0 0 1 4.5 0Z"/></svg>