<svg width="28" height="28" viewBox="0 0 28 28" xmlns="http://www.w3.org/2000/svg"><path d="M6.75 3A3.75 3.75 0 0 0 3 6.75v3.5a.75.75 0 0 0 1.5 0v-3.5c0-1.24 1-2.25 2.25-2.25h3.5a.75.75 0 0 0 0-1.5h-3.5Zm11 0a.75.75 0 0 0 0 1.5h3.5c1.24 0 2.25 1 2.25 2.25v3.5a.75.75 0 0 0 1.5 0v-3.5A3.75 3.75 0 0 0 21.25 3h-3.5ZM4.5 17.75a.75.75 0 0 0-1.5 0v3.5A3.75 3.75 0 0 0 6.75 25h3.5a.75.75 0 0 0 0-1.5h-3.5a2.26 2.26 0 0 1-2.25-2.25v-3.5Zm20.5 0a.75.75 0 0 0-1.5 0v3.5a2.25 2.25 0 0 1-2.25 2.25h-3.5a.75.75 0 0 0 0 1.5h3.5A3.75 3.75 0 0 0 25 21.25v-3.5ZM7.5 21.83c0 .23.04.45.1.67h-.85c-.27 0-.52-.08-.72-.23L6 21.83v-.58C6 20 7.01 19 8.25 19h11.5C21 19 22 20 22 21.25v.57c0 .15 0 .3-.02.45-.2.14-.46.23-.73.23h-.85c.07-.22.1-.45.1-.68v-.57a.75.75 0 0 0-.75-.75H8.25a.75.75 0 0 0-.75.75v.58ZM17 12.5a3 3 0 1 0-6 0 3 3 0 0 0 6 0Zm1.5 0a4.5 4.5 0 1 1-9 0 4.5 4.5 0 0 1 9 0Z"/></svg>