<svg width="24" height="24" viewBox="0 0 24 24" xmlns="http://www.w3.org/2000/svg"><path d="M3 6.25C3 4.45 4.46 3 6.25 3h2a.75.75 0 0 1 0 1.5h-2c-.97 0-1.75.78-1.75 1.75v2a.75.75 0 0 1-1.5 0v-2Zm12-2.5c0-.41.34-.75.75-.75h2C19.55 3 21 4.46 21 6.25v2a.75.75 0 0 1-1.5 0v-2c0-.97-.78-1.75-1.75-1.75h-2a.75.75 0 0 1-.75-.75ZM3.75 15c.41 0 .75.34.75.75v2c0 .97.78 1.75 1.75 1.75h2a.75.75 0 0 1 0 1.5h-2A3.25 3.25 0 0 1 3 17.75v-2c0-.41.34-.75.75-.75Zm16.5 0c.41 0 .75.34.75.75v2c0 1.8-1.46 3.25-3.25 3.25h-2a.75.75 0 0 1 0-1.5h2a1.75 1.75 0 0 0 1.75-1.75v-2c0-.41.34-.75.75-.75ZM7.02 18.5c.12-.57.62-1 1.23-1h7.5c.6 0 1.1.43 1.22 1h.78c.3 0 .55-.17.67-.41A2.75 2.75 0 0 0 15.75 16h-7.5c-1.3 0-2.37.89-2.67 2.09.12.24.38.41.67.41h.77ZM12 13a2.25 2.25 0 1 1 0-4.5 2.25 2.25 0 0 1 0 4.5Zm0 1.5A3.75 3.75 0 1 0 12 7a3.75 3.75 0 0 0 0 7.5Z"/></svg>