<svg width="20" height="20" viewBox="0 0 20 20" xmlns="http://www.w3.org/2000/svg"><path d="M3 6a3 3 0 0 1 3-3h1.5a.5.5 0 0 1 0 1H6a2 2 0 0 0-2 2v1.5a.5.5 0 0 1-1 0V6Zm9-2.5c0-.28.22-.5.5-.5H14a3 3 0 0 1 3 3v1.5a.5.5 0 0 1-1 0V6a2 2 0 0 0-2-2h-1.5a.5.5 0 0 1-.5-.5ZM3.5 12c.28 0 .5.22.5.5V14a2 2 0 0 0 2 2h1.5a.5.5 0 0 1 0 1H6a3 3 0 0 1-3-3v-1.5c0-.28.22-.5.5-.5Zm13 0c.28 0 .5.22.5.5V14a3 3 0 0 1-3 3h-1.5a.5.5 0 0 1 0-1H14a2 2 0 0 0 2-2v-1.5c0-.28.22-.5.5-.5Zm-4 3c-.65 0-1.2.42-1.41 1H8.9c-.2-.58-.76-1-1.41-1H6a1 1 0 0 1-.97-.78A1.5 1.5 0 0 1 6.5 13h7c.73 0 1.35.53 1.47 1.22A1 1 0 0 1 14 15h-1.5Zm.25-5.75a2.75 2.75 0 1 0-5.5 0 2.75 2.75 0 0 0 5.5 0Z"/></svg>